<svg width="962" height="463" viewBox="0 0 962 463" fill="none" xmlns="http://www.w3.org/2000/svg">
<line x1="71.5" y1="10" x2="71.5" y2="463" stroke="#4E4E4E"/>
<line x1="191.5" y1="10" x2="191.5" y2="463" stroke="#4E4E4E"/>
<line x1="251.5" y1="10" x2="251.5" y2="463" stroke="#4E4E4E"/>
<line x1="311.5" y1="11" x2="311.5" y2="191" stroke="#4E4E4E"/>
<line x1="371.5" y1="11" x2="371.5" y2="191" stroke="#4E4E4E"/>
<line x1="491.5" y1="11" x2="491.5" y2="191" stroke="#4E4E4E"/>
<line x1="551.5" y1="11" x2="551.5" y2="191" stroke="#4E4E4E"/>
<line x1="611.5" y1="11" x2="611.5" y2="191" stroke="#4E4E4E"/>
<line x1="671.5" y1="11" x2="671.5" y2="191" stroke="#4E4E4E"/>
<line x1="431.5" y1="11" x2="431.5" y2="191" stroke="#4E4E4E"/>
<line x1="131.5" y1="10" x2="131.5" y2="463" stroke="#4E4E4E"/>
<line x1="11.5" y1="10" x2="11.5" y2="463" stroke="#4E4E4E"/>
<line x1="951.5" y1="10" x2="951.5" y2="462" stroke="#4E4E4E"/>
<line x1="891.5" y1="10" x2="891.5" y2="462" stroke="#4E4E4E"/>
<line x1="831.5" y1="10" x2="831.5" y2="462" stroke="#4E4E4E"/>
<line x1="771.5" y1="10" x2="771.5" y2="462" stroke="#4E4E4E"/>
<line x1="711.5" y1="10" x2="711.5" y2="462" stroke="#4E4E4E"/>
<line x1="11" y1="10.5" x2="951" y2="10.5" stroke="#4E4E4E"/>
<line x1="11" y1="70.5" x2="951" y2="70.5" stroke="#4E4E4E"/>
<line x1="11" y1="130.5" x2="951" y2="130.5" stroke="#4E4E4E"/>
<line x1="11" y1="130.5" x2="951" y2="130.5" stroke="#4E4E4E"/>
<line x1="11" y1="190.5" x2="951" y2="190.5" stroke="#4E4E4E"/>
<line x1="11" y1="190.5" x2="951" y2="190.5" stroke="#4E4E4E"/>
<line x1="11" y1="250.5" x2="251" y2="250.5" stroke="#4E4E4E"/>
<line x1="711" y1="250.5" x2="951" y2="250.5" stroke="#4E4E4E"/>
<line x1="11" y1="369.5" x2="251" y2="369.5" stroke="#4E4E4E"/>
<line x1="711" y1="369.5" x2="951" y2="369.5" stroke="#4E4E4E"/>
<line x1="11" y1="429.5" x2="251" y2="429.5" stroke="#4E4E4E"/>
<line x1="711" y1="429.5" x2="951" y2="429.5" stroke="#4E4E4E"/>
<line x1="11" y1="310.5" x2="251" y2="310.5" stroke="#4E4E4E"/>
<line x1="711" y1="310.5" x2="951" y2="310.5" stroke="#4E4E4E"/>
<path d="M1 450.667H21" stroke="#F8F8F8" stroke-linecap="round"/>
<path d="M11.3333 441L11.3333 461" stroke="#F8F8F8" stroke-linecap="round"/>
<path d="M1 10.6667H21" stroke="#F8F8F8" stroke-linecap="round"/>
<path d="M11.3333 1L11.3333 21" stroke="#F8F8F8" stroke-linecap="round"/>
<path d="M941 10.6667H961" stroke="#F8F8F8" stroke-linecap="round"/>
<path d="M951.333 1L951.333 21" stroke="#F8F8F8" stroke-linecap="round"/>
<path d="M941 451.667H961" stroke="#F8F8F8" stroke-linecap="round"/>
<path d="M951.333 442L951.333 462" stroke="#F8F8F8" stroke-linecap="round"/>
</svg>
